<svg width="33" height="20" viewBox="0 0 33 20" fill="none" xmlns="http://www.w3.org/2000/svg">
<path d="M32.3794 1.03333C32.2145 0.626084 31.899 0.302458 31.5019 0.133333C31.3066 0.0479316 31.0968 0.00263331 30.8844 0H22.7594C22.3284 0 21.9151 0.175595 21.6104 0.488156C21.3056 0.800716 21.1344 1.22464 21.1344 1.66667C21.1344 2.10869 21.3056 2.53262 21.6104 2.84518C21.9151 3.15774 22.3284 3.33333 22.7594 3.33333H26.9682L17.8844 12.65L12.5382 7.15C12.3871 6.99379 12.2074 6.8698 12.0094 6.78518C11.8113 6.70057 11.5989 6.657 11.3844 6.657C11.1699 6.657 10.9575 6.70057 10.7595 6.78518C10.5615 6.8698 10.3817 6.99379 10.2307 7.15L0.480672 17.15C0.328364 17.3049 0.207473 17.4893 0.124974 17.6924C0.0424746 17.8955 0 18.1133 0 18.3333C0 18.5534 0.0424746 18.7712 0.124974 18.9743C0.207473 19.1774 0.328364 19.3617 0.480672 19.5167C0.631737 19.6729 0.811464 19.7969 1.00949 19.8815C1.20751 19.9661 1.4199 20.0097 1.63442 20.0097C1.84894 20.0097 2.06134 19.9661 2.25936 19.8815C2.45738 19.7969 2.63711 19.6729 2.78817 19.5167L11.3844 10.6833L16.7307 16.1833C16.8817 16.3395 17.0615 16.4635 17.2595 16.5482C17.4575 16.6328 17.6699 16.6763 17.8844 16.6763C18.0989 16.6763 18.3113 16.6328 18.5094 16.5482C18.7074 16.4635 18.8871 16.3395 19.0382 16.1833L29.2594 5.68333V10C29.2594 10.442 29.4306 10.866 29.7354 11.1785C30.0401 11.4911 30.4534 11.6667 30.8844 11.6667C31.3154 11.6667 31.7287 11.4911 32.0335 11.1785C32.3382 10.866 32.5094 10.442 32.5094 10V1.66667C32.5069 1.44887 32.4627 1.2337 32.3794 1.03333Z" fill="#7F8081"/>
</svg>
