<svg width="27" height="35" viewBox="0 0 27 35" fill="none" xmlns="http://www.w3.org/2000/svg">
<path d="M10.6429 12.2252C10.8579 11.8527 11.3342 11.7251 11.7066 11.9402L17.8888 15.5094C18.2613 15.7245 18.3889 16.2007 18.1738 16.5732L8.16096 33.916C7.8715 34.4173 7.15564 34.4388 6.83667 33.9557L5.03026 31.2198C4.89338 31.0125 4.66581 30.8829 4.41767 30.871L1.27568 30.7204C0.693336 30.6925 0.347049 30.0581 0.638556 29.5531L10.6429 12.2252Z" fill="#90ADE8"/>
<path d="M16.3562 12.2252C16.1411 11.8527 15.6649 11.7251 15.2924 11.9402L9.11024 15.5094C8.73777 15.7245 8.61015 16.2007 8.8252 16.5732L18.8381 33.916C19.1275 34.4173 19.8434 34.4388 20.1624 33.9557L21.9688 31.2198C22.1056 31.0125 22.3332 30.8829 22.5813 30.871L25.7233 30.7204C26.3057 30.6925 26.652 30.0581 26.3605 29.5531L16.3562 12.2252Z" fill="#90ADE8"/>
<mask id="mask0_2857_8315" style="mask-type:alpha" maskUnits="userSpaceOnUse" x="0" y="11" width="27" height="24">
<path d="M10.6429 12.2252C10.8579 11.8527 11.3342 11.7251 11.7066 11.9402L17.8888 15.5094C18.2613 15.7245 18.3889 16.2007 18.1738 16.5732L8.16096 33.916C7.8715 34.4173 7.15564 34.4388 6.83667 33.9557L5.03026 31.2198C4.89338 31.0125 4.66581 30.8829 4.41767 30.871L1.27568 30.7204C0.693336 30.6925 0.347049 30.0581 0.638556 29.5531L10.6429 12.2252Z" fill="#F7F9FF"/>
<path d="M16.3562 12.2252C16.1411 11.8527 15.6649 11.7251 15.2924 11.9402L9.11024 15.5094C8.73777 15.7245 8.61015 16.2007 8.8252 16.5732L18.8381 33.916C19.1275 34.4173 19.8434 34.4388 20.1624 33.9557L21.9688 31.2198C22.1056 31.0125 22.3332 30.8829 22.5813 30.871L25.7233 30.7204C26.3057 30.6925 26.652 30.0581 26.3605 29.5531L16.3562 12.2252Z" fill="#F7F9FF"/>
</mask>
<g mask="url(#mask0_2857_8315)">
<path d="M12.1752 4.09193C12.9332 3.30884 14.189 3.30884 14.947 4.09193L15.1699 4.32221C15.701 4.8709 16.5058 5.05459 17.2223 4.79068L17.5231 4.67991C18.5458 4.30325 19.6772 4.84811 20.0203 5.88252L20.1213 6.18671C20.3617 6.9115 21.0071 7.42619 21.7672 7.49931L22.0862 7.53001C23.1711 7.63437 23.954 8.61618 23.8144 9.69704L23.7733 10.0149C23.6755 10.7722 24.0336 11.516 24.6867 11.9117L24.9608 12.0777C25.893 12.6424 26.1724 13.8667 25.5776 14.78L25.4027 15.0485C24.986 15.6884 24.986 16.5139 25.4027 17.1538L25.5776 17.4223C26.1724 18.3356 25.893 19.5599 24.9608 20.1246L24.6867 20.2906C24.0336 20.6863 23.6755 21.4301 23.7733 22.1874L23.8144 22.5053C23.954 23.5861 23.1711 24.5679 22.0862 24.6723L21.7672 24.703C21.0071 24.7761 20.3617 25.2908 20.1213 26.0156L20.0203 26.3198C19.6772 27.3542 18.5458 27.899 17.5231 27.5224L17.2223 27.4116C16.5058 27.1477 15.701 27.3314 15.1699 27.8801L14.947 28.1104C14.189 28.8935 12.9332 28.8935 12.1752 28.1104L11.9523 27.8801C11.4212 27.3314 10.6164 27.1477 9.89987 27.4116L9.59913 27.5224C8.57644 27.899 7.44503 27.3542 7.10188 26.3198L7.00097 26.0156C6.76053 25.2908 6.11513 24.7761 5.35502 24.703L5.036 24.6723C3.95116 24.5679 3.1682 23.5861 3.30785 22.5053L3.34892 22.1874C3.44676 21.4301 3.08859 20.6863 2.43548 20.2906L2.16137 20.1246C1.22925 19.5599 0.949814 18.3356 1.5446 17.4223L1.71951 17.1538C2.13626 16.5139 2.13626 15.6884 1.71951 15.0485L1.5446 14.78C0.949814 13.8667 1.22925 12.6424 2.16137 12.0777L2.43548 11.9117C3.08859 11.516 3.44676 10.7722 3.34892 10.0149L3.30785 9.69704C3.1682 8.61618 3.95116 7.63437 5.036 7.53001L5.35502 7.49931C6.11513 7.42619 6.76053 6.9115 7.00097 6.18671L7.10188 5.88252C7.44503 4.84811 8.57644 4.30325 9.59913 4.67991L9.89987 4.79068C10.6164 5.05459 11.4212 4.8709 11.9523 4.32221L12.1752 4.09193Z" fill="#5375BB"/>
</g>
<path d="M12.1723 1.43177C12.9303 0.648685 14.1861 0.648685 14.944 1.43177L15.167 1.66206C15.698 2.21074 16.5028 2.39444 17.2194 2.13052L17.5202 2.01975C18.5428 1.64309 19.6743 2.18795 20.0174 3.22236L20.1183 3.52656C20.3588 4.25134 21.0042 4.76603 21.7643 4.83916L22.0833 4.86985C23.1681 4.97422 23.9511 5.95602 23.8114 7.03688L23.7704 7.35473C23.6725 8.11206 24.0307 8.85581 24.6838 9.2515L24.9579 9.41757C25.89 9.98229 26.1695 11.2066 25.5747 12.1198L25.3998 12.3884C24.983 13.0282 24.983 13.8537 25.3998 14.4936L25.5747 14.7622C26.1695 15.6754 25.89 16.8997 24.9579 17.4644L24.6838 17.6305C24.0307 18.0262 23.6725 18.7699 23.7704 19.5273L23.8114 19.8451C23.9511 20.926 23.1681 21.9078 22.0833 22.0121L21.7643 22.0428C21.0042 22.116 20.3588 22.6306 20.1183 23.3554L20.0174 23.6596C19.6743 24.694 18.5428 25.2389 17.5202 24.8622L17.2194 24.7515C16.5028 24.4875 15.698 24.6712 15.167 25.2199L14.944 25.4502C14.1861 26.2333 12.9303 26.2333 12.1723 25.4502L11.9494 25.2199C11.4183 24.6712 10.6135 24.4875 9.89694 24.7515L9.5962 24.8622C8.57351 25.2389 7.4421 24.694 7.09895 23.6596L6.99804 23.3554C6.7576 22.6306 6.1122 22.116 5.35209 22.0428L5.03307 22.0121C3.94823 21.9078 3.16527 20.926 3.30492 19.8451L3.34599 19.5273C3.44383 18.7699 3.08566 18.0262 2.43255 17.6305L2.15844 17.4644C1.22632 16.8997 0.946885 15.6754 1.54167 14.7622L1.71658 14.4936C2.13333 13.8537 2.13333 13.0282 1.71658 12.3884L1.54167 12.1198C0.946885 11.2066 1.22632 9.98229 2.15844 9.41757L2.43255 9.2515C3.08566 8.85581 3.44383 8.11206 3.34599 7.35473L3.30492 7.03688C3.16527 5.95602 3.94823 4.97422 5.03307 4.86985L5.35209 4.83916C6.1122 4.76603 6.7576 4.25134 6.99804 3.52656L7.09895 3.22236C7.4421 2.18795 8.57351 1.64309 9.5962 2.01975L9.89694 2.13052C10.6135 2.39444 11.4183 2.21074 11.9494 1.66206L12.1723 1.43177Z" fill="url(#paint0_linear_2857_8315)"/>
<path d="M12.3887 1.6416C13.0282 0.980872 14.088 0.980872 14.7275 1.6416L14.9502 1.87207C15.5642 2.50635 16.4948 2.71811 17.3232 2.41309L17.624 2.30273C18.4869 1.98493 19.4419 2.4446 19.7314 3.31738L19.832 3.62109C20.11 4.45909 20.8565 5.05408 21.7354 5.13867L22.0547 5.16992C22.9698 5.25811 23.6304 6.08625 23.5127 6.99805L23.4717 7.31641C23.3587 8.19181 23.7725 9.05126 24.5273 9.50879L24.8018 9.67578C25.588 10.1523 25.8239 11.1846 25.3223 11.9551L25.1475 12.2236C24.6656 12.9635 24.6656 13.9183 25.1475 14.6582L25.3223 14.9268C25.824 15.6973 25.5882 16.7306 24.8018 17.207L24.5273 17.373C23.7725 17.8305 23.3587 18.69 23.4717 19.5654L23.5127 19.8838C23.6305 20.7956 22.9698 21.6237 22.0547 21.7119L21.7354 21.7432C20.8565 21.8277 20.11 22.4227 19.832 23.2607L19.7314 23.5645C19.4419 24.4372 18.4869 24.8969 17.624 24.5791L17.3232 24.4688C16.4948 24.1637 15.5642 24.3764 14.9502 25.0107L14.7275 25.2402C14.088 25.901 13.0282 25.901 12.3887 25.2402L12.166 25.0107C11.552 24.3764 10.6215 24.1637 9.79297 24.4688L9.49219 24.5791C8.6293 24.8969 7.6743 24.4372 7.38477 23.5645L7.28418 23.2607C7.00618 22.4227 6.25974 21.8277 5.38086 21.7432L5.06152 21.7119C4.14645 21.6236 3.48577 20.7956 3.60352 19.8838L3.64453 19.5654C3.75748 18.69 3.34376 17.8305 2.58887 17.373L2.31445 17.207C1.52804 16.7306 1.29226 15.6973 1.79395 14.9268L1.96875 14.6582C2.45062 13.9183 2.45062 12.9635 1.96875 12.2236L1.79395 11.9551C1.29242 11.1847 1.52833 10.1523 2.31445 9.67578L2.58887 9.50879C3.34376 9.05127 3.75755 8.19186 3.64453 7.31641L3.60352 6.99805C3.48586 6.08631 4.14649 5.25818 5.06152 5.16992L5.38086 5.13867C6.25974 5.05412 7.00618 4.45913 7.28418 3.62109L7.38477 3.31738C7.6743 2.4446 8.6293 1.98493 9.49219 2.30273L9.79297 2.41309C10.6214 2.71816 11.552 2.50633 12.166 1.87207L12.3887 1.6416Z" stroke="#F88A2E" stroke-opacity="0.36" stroke-width="0.602735"/>
<circle cx="13.5608" cy="13.4416" r="7.59446" stroke="url(#paint1_linear_2857_8315)" stroke-width="1.08492"/>
<circle cx="13.5608" cy="13.4416" r="8.43829" stroke="white" stroke-width="0.602735"/>
<defs>
<linearGradient id="paint0_linear_2857_8315" x1="2.82949" y1="1.68766" x2="25.6129" y2="24.471" gradientUnits="userSpaceOnUse">
<stop stop-color="#FDB83D"/>
<stop offset="1" stop-color="#F9D534"/>
</linearGradient>
<linearGradient id="paint1_linear_2857_8315" x1="5.42383" y1="7.90629" x2="21.6977" y2="17.427" gradientUnits="userSpaceOnUse">
<stop stop-color="#FEB441"/>
<stop offset="0.386364" stop-color="#F88A2E"/>
</linearGradient>
</defs>
</svg>
