<svg width="24" height="24" viewBox="0 0 24 24" fill="none" xmlns="http://www.w3.org/2000/svg">
<path d="M2.5 8.187C2.604 6.087 2.915 4.778 3.847 3.847C4.777 2.915 6.087 2.604 8.187 2.5M21.5 8.187C21.396 6.087 21.085 4.778 20.153 3.847C19.223 2.915 17.913 2.604 15.813 2.5M15.813 21.5C17.913 21.396 19.223 21.085 20.153 20.154C21.085 19.222 21.396 17.913 21.5 15.814M8.187 21.5C6.087 21.396 4.777 21.085 3.847 20.154C2.915 19.222 2.604 17.913 2.5 15.814" stroke="black" stroke-width="1.5" stroke-linecap="round" stroke-linejoin="round"/>
<path d="M9.5 10.5568C9.5 9.71482 9.368 8.41482 9.876 7.65682C10.999 5.98382 13.38 6.20682 14.22 7.83982C14.632 8.64182 14.477 9.76282 14.496 10.5568M9.5 10.5568C8.203 10.5568 7.938 11.2988 7.74 11.8818C7.557 12.5368 7.37 14.1018 7.656 15.8158C7.87 16.9078 8.705 17.3888 9.423 17.4498C10.11 17.5078 13.01 17.4858 13.849 17.4858C15.15 17.4858 15.962 17.1998 16.344 15.8888C16.527 14.8688 16.577 13.0468 16.272 11.8818C15.868 10.7168 15.052 10.5568 14.496 10.5568M9.5 10.5568C10.874 10.5018 13.71 10.5128 14.496 10.5568" stroke="black" stroke-width="1.5" stroke-linecap="round"/>
</svg>
