<svg width="14" height="14" viewBox="0 0 14 14" fill="none" xmlns="http://www.w3.org/2000/svg">
<path d="M7.00007 10.0776L4.57924 11.5359C4.47229 11.604 4.36049 11.6332 4.24382 11.6234C4.12715 11.6137 4.02507 11.5748 3.93757 11.5068C3.85007 11.4387 3.78201 11.3537 3.7334 11.2519C3.68479 11.15 3.67507 11.0356 3.70424 10.9089L4.3459 8.1526L2.20215 6.30052C2.10493 6.21302 2.04426 6.11327 2.02015 6.00127C1.99604 5.88927 2.00324 5.77999 2.04174 5.67344C2.08024 5.56688 2.13857 5.47938 2.21674 5.41094C2.2949 5.34249 2.40185 5.29874 2.53757 5.27969L5.36674 5.03177L6.46049 2.43594C6.5091 2.31927 6.58454 2.23177 6.68682 2.17344C6.7891 2.1151 6.89351 2.08594 7.00007 2.08594C7.10663 2.08594 7.21104 2.1151 7.31332 2.17344C7.4156 2.23177 7.49104 2.31927 7.53965 2.43594L8.6334 5.03177L11.4626 5.27969C11.5987 5.29913 11.7056 5.34288 11.7834 5.41094C11.8612 5.47899 11.9195 5.56649 11.9584 5.67344C11.9973 5.78038 12.0047 5.88985 11.9806 6.00185C11.9565 6.11385 11.8956 6.21341 11.798 6.30052L9.65424 8.1526L10.2959 10.9089C10.3251 11.0352 10.3153 11.1496 10.2667 11.2519C10.2181 11.3541 10.1501 11.4391 10.0626 11.5068C9.97507 11.5744 9.87299 11.6133 9.75632 11.6234C9.63965 11.6335 9.52785 11.6044 9.4209 11.5359L7.00007 10.0776Z" fill="#FFA600"/>
</svg>
