<svg width="22" height="16" viewBox="0 0 22 16" fill="none" xmlns="http://www.w3.org/2000/svg">
<path d="M0 13.4545C0 14.1296 0.278496 14.7771 0.774221 15.2545C1.26995 15.7318 1.94229 16 2.64336 16H18.5035C19.2046 16 19.8769 15.7318 20.3726 15.2545C20.8684 14.7771 21.1469 14.1296 21.1469 13.4545V6.45455H0V13.4545ZM3.11538 10C3.11538 9.63834 3.26458 9.2915 3.53015 9.03576C3.79571 8.78003 4.1559 8.63636 4.53147 8.63636H6.7972C7.17277 8.63636 7.53296 8.78003 7.79853 9.03576C8.06409 9.2915 8.21329 9.63834 8.21329 10V10.9091C8.21329 11.2708 8.06409 11.6176 7.79853 11.8733C7.53296 12.1291 7.17277 12.2727 6.7972 12.2727H4.53147C4.1559 12.2727 3.79571 12.1291 3.53015 11.8733C3.26458 11.6176 3.11538 11.2708 3.11538 10.9091V10ZM18.5035 0H2.64336C1.94229 0 1.26995 0.268181 0.774221 0.745547C0.278496 1.22291 0 1.87036 0 2.54545V3.72727H21.1469V2.54545C21.1469 1.87036 20.8684 1.22291 20.3726 0.745547C19.8769 0.268181 19.2046 0 18.5035 0Z" fill="black"/>
</svg>
