<svg width="20" height="20" viewBox="0 0 20 20" fill="none" xmlns="http://www.w3.org/2000/svg">
<path fill-rule="evenodd" clip-rule="evenodd" d="M14.845 0.193223C14.874 0.123048 14.9275 0.0658236 14.9956 0.0322385C15.0637 -0.0013466 15.1417 -0.00899462 15.215 0.0107231L16.4925 0.359473C16.5657 0.37968 16.629 0.42584 16.6707 0.48933C16.7123 0.55282 16.7294 0.629297 16.7188 0.704473L16.56 1.82072C17.2488 2.21697 17.8037 2.78822 18.1838 3.45822L19.3025 3.30822C19.3782 3.29814 19.4549 3.3161 19.5182 3.3587C19.5815 3.4013 19.6271 3.4656 19.6462 3.53947L19.9838 4.81947C20.0028 4.89323 19.9943 4.97141 19.9598 5.03932C19.9252 5.10722 19.8671 5.16017 19.7962 5.18822L18.7513 5.60822C18.752 6.39119 18.5427 7.16001 18.145 7.83447L18.8325 8.72822C18.8789 8.78853 18.9018 8.86372 18.8967 8.93967C18.8916 9.01562 18.859 9.08711 18.805 9.14072L17.8663 10.072C17.8123 10.1256 17.7407 10.1578 17.6647 10.1624C17.5888 10.167 17.5138 10.1437 17.4538 10.097L16.565 9.39947C15.8876 9.79122 15.1175 9.9941 14.335 9.98697L13.905 11.0307C13.876 11.1009 13.8225 11.1581 13.7544 11.1917C13.6863 11.2253 13.6083 11.2329 13.535 11.2132L12.2575 10.8657C12.1838 10.8457 12.12 10.7995 12.0781 10.7357C12.0362 10.6719 12.0191 10.595 12.03 10.5195L12.19 9.40322C11.512 9.01243 10.9513 8.44695 10.5662 7.76572L9.4475 7.91572C9.37185 7.9258 9.29512 7.90785 9.2318 7.86525C9.16847 7.82265 9.12292 7.75835 9.10375 7.68447L8.76625 6.40447C8.74719 6.33072 8.75572 6.25254 8.79025 6.18463C8.82478 6.11673 8.88292 6.06377 8.95375 6.03572L9.99875 5.61572C9.99798 4.83276 10.2073 4.06394 10.605 3.38947L9.9175 2.49572C9.87106 2.43541 9.84823 2.36023 9.85329 2.28428C9.85835 2.20833 9.89096 2.13683 9.945 2.08322L10.8837 1.15197C10.9377 1.09831 11.0093 1.06616 11.0853 1.06155C11.1612 1.05695 11.2362 1.08021 11.2962 1.12697L12.185 1.82447C12.8624 1.43273 13.6325 1.22985 14.415 1.23697L14.845 0.193223ZM16.7875 6.26822C16.7013 6.58504 16.5536 6.88177 16.3527 7.14149C16.1519 7.40121 15.9018 7.61882 15.6169 7.78191C15.3319 7.94499 15.0176 8.05035 14.6919 8.09197C14.3663 8.13359 14.0356 8.11065 13.7188 8.02447C13.4019 7.93829 13.1052 7.79056 12.8455 7.5897C12.5858 7.38884 12.3681 7.13879 12.2051 6.85383C11.8757 6.27833 11.7885 5.59556 11.9625 4.95572C12.1365 4.31589 12.5576 3.7714 13.1331 3.44204C13.7086 3.11268 14.3914 3.02542 15.0312 3.19947C15.6711 3.37352 16.2156 3.79461 16.5449 4.37012C16.8743 4.94562 16.9615 5.62839 16.7875 6.26822ZM7.22125 7.76197C7.21212 7.68639 7.1757 7.61675 7.11886 7.56611C7.06201 7.51548 6.98863 7.48734 6.9125 7.48697H5.58875C5.5126 7.48699 5.43907 7.51482 5.38199 7.56523C5.3249 7.61564 5.28819 7.68516 5.27875 7.76072L5.14125 8.86072C4.59027 8.9859 4.06449 9.20357 3.58625 9.50447L2.71125 8.82447C2.65123 8.77771 2.57622 8.75445 2.50028 8.75905C2.42433 8.76366 2.35268 8.79581 2.29875 8.84947L1.3625 9.78572C1.30883 9.83965 1.27668 9.91131 1.27208 9.98725C1.26748 10.0632 1.29074 10.1382 1.3375 10.1982L2.0175 11.0732C1.7166 11.5515 1.49893 12.0772 1.37375 12.6282L0.27375 12.7657C0.198397 12.7751 0.129051 12.8117 0.0786708 12.8685C0.028291 12.9253 0.000325275 12.9985 0 13.0745V14.397C2.14924e-05 14.4731 0.0278504 14.5467 0.0782584 14.6037C0.128666 14.6608 0.198184 14.6975 0.27375 14.707L1.37375 14.8445C1.5 15.4045 1.72125 15.9282 2.0175 16.3995L1.3375 17.2745C1.29074 17.3345 1.26748 17.4095 1.27208 17.4854C1.27668 17.5614 1.30883 17.633 1.3625 17.687L2.29875 18.6232C2.35268 18.6769 2.42433 18.709 2.50028 18.7136C2.57622 18.7182 2.65123 18.695 2.71125 18.6482L3.58625 17.9682C4.0575 18.2645 4.58125 18.4857 5.14125 18.612L5.27875 19.712C5.28788 19.7876 5.3243 19.8572 5.38114 19.9078C5.43799 19.9585 5.51137 19.9866 5.5875 19.987H6.91C6.98615 19.987 7.05968 19.9591 7.11676 19.9087C7.17385 19.8583 7.21056 19.7888 7.22 19.7132L7.3575 18.6132C7.90848 18.488 8.43426 18.2704 8.9125 17.9695L9.7875 18.6495C9.84752 18.6962 9.92253 18.7195 9.99847 18.7149C10.0744 18.7103 10.1461 18.6781 10.2 18.6245L11.1363 17.6882C11.1899 17.6343 11.2221 17.5626 11.2267 17.4867C11.2313 17.4108 11.208 17.3357 11.1613 17.2757L10.4813 16.4007C10.7775 15.9295 10.9987 15.4057 11.125 14.8457L12.225 14.7082C12.3006 14.6991 12.3702 14.6627 12.4209 14.6058C12.4715 14.549 12.4996 14.4756 12.5 14.3995V13.077C12.5 13.0008 12.4721 12.9273 12.4217 12.8702C12.3713 12.8131 12.3018 12.7764 12.2262 12.767L11.1263 12.6295C11.0011 12.0785 10.7834 11.5527 10.4825 11.0745L11.1625 10.1995C11.2093 10.1395 11.2325 10.0644 11.2279 9.9885C11.2233 9.91256 11.1912 9.8409 11.1375 9.78697L10.2 8.84947C10.1461 8.79581 10.0744 8.76366 9.99847 8.75905C9.92253 8.75445 9.84752 8.77771 9.7875 8.82447L8.9125 9.50447C8.43456 9.20414 7.90922 8.9869 7.35875 8.86197L7.22125 7.76197ZM9.375 13.737C9.375 14.5658 9.04576 15.3606 8.45971 15.9467C7.87366 16.5327 7.0788 16.862 6.25 16.862C5.4212 16.862 4.62634 16.5327 4.04029 15.9467C3.45424 15.3606 3.125 14.5658 3.125 13.737C3.125 12.9082 3.45424 12.1133 4.04029 11.5273C4.62634 10.9412 5.4212 10.612 6.25 10.612C7.0788 10.612 7.87366 10.9412 8.45971 11.5273C9.04576 12.1133 9.375 12.9082 9.375 13.737Z" fill="black"/>
</svg>
