<svg width="24" height="20" viewBox="0 0 24 20" fill="none" xmlns="http://www.w3.org/2000/svg">
<path d="M1.94707 13.2197C0.99082 11.9777 0.512695 11.3556 0.512695 9.51172C0.512695 7.66672 0.99082 7.04684 1.94707 5.80372C3.8562 3.32422 7.05795 0.511719 11.7627 0.511719C16.4674 0.511719 19.6692 3.32422 21.5783 5.80372C22.5346 7.04797 23.0127 7.66784 23.0127 9.51172C23.0127 11.3567 22.5346 11.9766 21.5783 13.2197C19.6692 15.6992 16.4674 18.5117 11.7627 18.5117C7.05795 18.5117 3.8562 15.6992 1.94707 13.2197Z" stroke="black" stroke-width="1.02632"/>
<path d="M15.1377 9.51172C15.1377 10.4068 14.7821 11.2653 14.1492 11.8982C13.5162 12.5311 12.6578 12.8867 11.7627 12.8867C10.8676 12.8867 10.0091 12.5311 9.37621 11.8982C8.74327 11.2653 8.3877 10.4068 8.3877 9.51172C8.3877 8.61661 8.74327 7.75817 9.37621 7.12523C10.0091 6.4923 10.8676 6.13672 11.7627 6.13672C12.6578 6.13672 13.5162 6.4923 14.1492 7.12523C14.7821 7.75817 15.1377 8.61661 15.1377 9.51172Z" stroke="black" stroke-width="1.02632"/>
</svg>
