<svg width="51" height="51" viewBox="0 0 51 51" fill="none" xmlns="http://www.w3.org/2000/svg">
<path d="M40 23.375H10.25C7.90279 23.375 6 25.2778 6 27.625V42.5C6 44.8472 7.90279 46.75 10.25 46.75H40C42.3472 46.75 44.25 44.8472 44.25 42.5V27.625C44.25 25.2778 42.3472 23.375 40 23.375Z" stroke="white" stroke-width="2" stroke-linecap="round" stroke-linejoin="round"/>
<path d="M15 23.375V14.875C15 12.0571 16.1194 9.35456 18.112 7.36199C20.1046 5.36942 22.8071 4.25 25.625 4.25C28.4429 4.25 31.1454 5.36942 33.138 7.36199C35.1306 9.35456 36.25 12.0571 36.25 14.875V23.375" stroke="white" stroke-width="2" stroke-linecap="round" stroke-linejoin="round"/>
</svg>
