<svg width="39" height="40" viewBox="0 0 39 40" fill="none" xmlns="http://www.w3.org/2000/svg">
<path d="M19.5 3.33203C28.4749 3.33203 35.75 10.7937 35.75 19.9987C35.75 29.2037 28.4749 36.6654 19.5 36.6654C10.5251 36.6654 3.25 29.2037 3.25 19.9987C3.25 10.7937 10.5251 3.33203 19.5 3.33203ZM19.5 6.66536C16.0522 6.66536 12.7456 8.07012 10.3076 10.5706C7.86964 13.0711 6.5 16.4625 6.5 19.9987C6.5 23.5349 7.86964 26.9263 10.3076 29.4268C12.7456 31.9273 16.0522 33.332 19.5 33.332C22.9478 33.332 26.2544 31.9273 28.6924 29.4268C31.1304 26.9263 32.5 23.5349 32.5 19.9987C32.5 16.4625 31.1304 13.0711 28.6924 10.5706C26.2544 8.07012 22.9478 6.66536 19.5 6.66536ZM19.5 9.9987C19.898 9.99875 20.2822 10.1486 20.5796 10.4199C20.877 10.6912 21.0671 11.0649 21.1136 11.4704L21.125 11.6654V19.3087L25.5239 23.8204C25.8153 24.1203 25.9845 24.5228 25.9971 24.946C26.0097 25.3693 25.8648 25.7816 25.5917 26.0992C25.3187 26.4168 24.938 26.6159 24.527 26.656C24.116 26.6962 23.7055 26.5744 23.3789 26.3154L23.2261 26.177L18.3511 21.177C18.0986 20.9178 17.9364 20.5804 17.8896 20.217L17.875 19.9987V11.6654C17.875 11.2233 18.0462 10.7994 18.351 10.4869C18.6557 10.1743 19.069 9.9987 19.5 9.9987Z" fill="#7F8081"/>
</svg>
