<svg width="13" height="13" viewBox="0 0 13 13" fill="none" xmlns="http://www.w3.org/2000/svg">
<path d="M1.02632 4.67697C0.771185 4.67699 0.525206 4.77827 0.336345 4.96109C0.147484 5.1439 0.0292816 5.39513 0.00478935 5.66578L0 5.77079V8.68763C0 9.53116 0.304795 10.3423 0.85111 10.9527C1.39743 11.563 2.1433 11.9257 2.93389 11.9654L3.07895 11.9691H8.85368L8.86737 12.1966L8.87489 12.2987C8.91321 12.823 9.38737 13.1519 9.78558 12.9295L10.0004 12.8069L10.2522 12.6545L10.3911 12.5678L10.6915 12.3716C10.9054 12.2276 11.1158 12.0776 11.3223 11.9217L11.5857 11.7175L11.8067 11.5388L11.9005 11.4608C12.2351 11.1764 12.2221 10.5894 11.8663 10.2897L11.7732 10.2117L11.5543 10.0352L11.2943 9.83468L10.9946 9.61519C10.8338 9.50077 10.6709 9.38967 10.5061 9.28194L10.2146 9.09599L9.958 8.94213L9.74179 8.81816C9.347 8.5994 8.91595 8.88015 8.87832 9.36945L8.85232 9.78145H3.07895C2.82382 9.78144 2.57784 9.68015 2.38898 9.49734C2.20012 9.31452 2.08191 9.06329 2.05742 8.79264L2.05263 8.68763V5.77079C2.05263 5.48069 1.9445 5.20247 1.75203 4.99734C1.55956 4.79221 1.29851 4.67697 1.02632 4.67697ZM3.21442 0.0705466L2.99958 0.193054L2.74779 0.345459C2.70218 0.372683 2.65588 0.401608 2.60889 0.432235L2.30853 0.628393C2.09456 0.77242 1.88421 0.922447 1.67768 1.07832L1.41426 1.2825L1.19326 1.46115L1.09953 1.53918C0.764947 1.82357 0.777946 2.41058 1.13374 2.71029L1.22679 2.78832L1.44574 2.96478L1.70574 3.16532C1.96299 3.3583 2.22586 3.54264 2.49395 3.71806L2.78542 3.90401L3.042 4.05787L3.25821 4.18184C3.653 4.4006 4.08405 4.11985 4.121 3.63055L4.14837 3.21855H9.92105C10.1932 3.21855 10.4543 3.33379 10.6468 3.53892C10.8392 3.74405 10.9474 4.02227 10.9474 4.31237V7.22921C10.9474 7.51931 11.0555 7.79753 11.248 8.00266C11.4404 8.20779 11.7015 8.32303 11.9737 8.32303C12.2459 8.32303 12.5069 8.20779 12.6994 8.00266C12.8919 7.79753 13 7.51931 13 7.22921V4.31237C13 3.44207 12.6756 2.60742 12.0982 1.99203C11.5208 1.37664 10.7376 1.03092 9.92105 1.03092H4.14632L4.1251 0.701314C4.08679 0.177011 3.61263 -0.151863 3.21442 0.0705466Z" fill="white"/>
</svg>
