<svg width="27" height="27" viewBox="0 0 27 27" fill="none" xmlns="http://www.w3.org/2000/svg">
<path d="M23.6227 11.2461C23.6092 8.79922 23.5013 7.47397 22.6361 6.60997C21.6484 5.62109 20.0565 5.62109 16.875 5.62109H13.5C10.3185 5.62109 8.72663 5.62109 7.73888 6.60997C6.75 7.59772 6.75 9.18959 6.75 12.3711V17.9961C6.75 21.1776 6.75 22.7695 7.73888 23.7572C8.72663 24.7461 10.3185 24.7461 13.5 24.7461H16.875C20.0565 24.7461 21.6484 24.7461 22.6361 23.7572C23.625 22.7695 23.625 21.1776 23.625 17.9961V16.8711" stroke="black" stroke-width="1.02632" stroke-linecap="round"/>
<path d="M3.375 11.2461V17.9961C3.375 18.8912 3.73058 19.7496 4.36351 20.3826C4.99645 21.0155 5.85489 21.3711 6.75 21.3711M20.25 5.62109C20.25 4.72599 19.8944 3.86754 19.2615 3.23461C18.6286 2.60167 17.7701 2.24609 16.875 2.24609H12.375C8.13263 2.24609 6.01087 2.24609 4.6935 3.56459C3.95775 4.29922 3.63263 5.28359 3.48975 6.74609" stroke="black" stroke-width="1.02632" stroke-linecap="round"/>
</svg>
